<!--Scalable Vector Graphic-->
<!-- https://tablericons.com/ -->
<svg xmlns="http://www.w3.org/2000/svg">

	<!-- バツ -->
	<symbol id="iconClose" viewBox="0 0 48 48">
		<line x1="16" y1="16" x2="32" y2="32"/>
		<line x1="24" y1="24" x2="32" y2="16"/>
		<line x1="16" y1="32" x2="21.5201" y2="26.4799"/>
	</symbol>

	<!-- 背景色 -->
	<symbol id="backcolor" viewBox="0 0 24 24">
		<path stroke="none" d="M0 0h24v24H0z" fill="none"/>
		<path d="M12 21a9 9 0 1 1 0 -18a9 8 0 0 1 9 8a4.5 4 0 0 1 -4.5 4h-2.5a2 2 0 0 0 -1 3.75a1.3 1.3 0 0 1 -1 2.25" />
		<circle cx="7.5" cy="10.5" r=".5" fill="currentColor" />
		<circle cx="12" cy="7.5" r=".5" fill="currentColor" />
		<circle cx="16.5" cy="10.5" r=".5" fill="currentColor" />
	</symbol>

	<!-- 文字色 -->
	<symbol id="color" viewBox="0 0 24 24">
		<path stroke="none" d="M0 0h24v24H0z" fill="none"/>
		<path d="M16 4l3 3l-12.35 12.35a1.5 1.5 0 0 1 -3 -3l12.35 -12.35" />
		<line x1="10" y1="10" x2="16" y2="10" />
		<path d="M19 15l1.5 1.6a2 2 0 1 1 -3 0l1.5 -1.6" />
	</symbol>

	<!-- 画像 -->
	<symbol id="image" viewBox="0 0 24 24">
		<path stroke="none" d="M0 0h24v24H0z" fill="none"/>
		<line x1="15" y1="8" x2="15.01" y2="8" />
		<rect x="4" y="4" width="16" height="16" rx="3" />
		<path d="M4 15l4 -4a3 5 0 0 1 3 0l5 5" />
		<path d="M14 14l1 -1a3 5 0 0 1 3 0l2 2" />
	</symbol>

	<!-- 埋込 -->
	<symbol id="embed" viewBox="0 0 24 24">
		<path stroke="none" d="M0 0h24v24H0z" fill="none"/>
		<polyline points="7 8 3 12 7 16" />
		<polyline points="17 8 21 12 17 16" />
		<line x1="14" y1="4" x2="10" y2="20" />
	</symbol>

	<!-- リスト -->
	<symbol id="list" viewBox="0 0 24 24">
		<path stroke="none" d="M0 0h24v24H0z" fill="none"/>
		<path d="M11 6h9" />
		<path d="M11 12h9" />
		<path d="M12 18h8" />
		<path d="M4 16a2 2 0 1 1 4 0c0 .591 -.5 1 -1 1.5l-3 2.5h4" />
		<path d="M6 10v-6l-2 2" />
	</symbol>

	<!-- 横組 -->
	<symbol id="horizon" viewBox="0 0 24 24">
		<path stroke="none" d="M0 0h24v24H0z" fill="none"/>
		<path d="M13 5h8" />
		<path d="M13 9h5" />
		<path d="M13 15h8" />
		<path d="M13 19h5" />
		<rect x="3" y="4" width="6" height="6" rx="1" />
		<rect x="3" y="14" width="6" height="6" rx="1" />
	</symbol>

	<!-- viewbox -->
	<symbol id="viewbox" viewBox="0 0 24 24">
		<path stroke="none" d="M0 0h24v24H0z" fill="none"/>
		<rect x="4" y="4" width="16" height="16" rx="2" />
		<line x1="12" y1="8" x2="12" y2="8.01" />
		<line x1="8" y1="12" x2="8" y2="12.01" />
		<line x1="12" y1="12" x2="12" y2="12.01" />
		<line x1="16" y1="12" x2="16" y2="12.01" />
		<line x1="12" y1="16" x2="12" y2="16.01" />
	</symbol>

	<!-- 境界線 -->
	<symbol id="hr" viewBox="0 0 24 24">
		<path stroke="none" d="M0 0h24v24H0z" fill="none"/>
		<path d="M22 12h-20" />
		<path d="M4 14v-8a2 2 0 0 1 2 -2h12a2 2 0 0 1 2 2v8" />
		<path d="M18 20a2 2 0 0 0 2 -2" />
		<path d="M4 18a2 2 0 0 0 2 2" />
		<line x1="14" y1="20" x2="10" y2="20" />
	</symbol>

	<!-- コラム -->
	<symbol id="column" viewBox="0 0 24 24">
		<path stroke="none" d="M0 0h24v24H0z" fill="none"/>
		<rect x="5" y="3" width="14" height="18" rx="2" />
		<line x1="9" y1="7" x2="15" y2="7" />
		<line x1="9" y1="11" x2="15" y2="11" />
		<line x1="9" y1="15" x2="13" y2="15" />
	</symbol>

	<!-- リンク -->
	<symbol id="link" viewBox="0 0 24 24">
		<path stroke="none" d="M0 0h24v24H0z" fill="none"/>
		<path d="M10 14a3.5 3.5 0 0 0 5 0l4 -4a3.5 3.5 0 0 0 -5 -5l-.5 .5" />
		<path d="M14 10a3.5 3.5 0 0 0 -5 0l-4 4a3.5 3.5 0 0 0 5 5l.5 -.5" />
	</symbol>

	<!-- リンク解除 -->
	<symbol id="unlink" viewBox="0 0 24 24">
		<path stroke="none" d="M0 0h24v24H0z" fill="none"/>
		<path d="M10 14a3.5 3.5 0 0 0 5 0l4 -4a3.5 3.5 0 0 0 -5 -5l-.5 .5" />
		<path d="M14 10a3.5 3.5 0 0 0 -5 0l-4 4a3.5 3.5 0 0 0 5 5l.5 -.5" />
		<line x1="16" y1="21" x2="16" y2="19" />
		<line x1="19" y1="16" x2="21" y2="16" />
		<line x1="3" y1="8" x2="5" y2="8" />
		<line x1="8" y1="3" x2="8" y2="5" />
	</symbol>

	<!-- テーブル -->
	<symbol id="table" viewBox="0 0 24 24">
		<path stroke="none" d="M0 0h24v24H0z" fill="none"/>
		<rect x="4" y="4" width="16" height="16" rx="2" />
		<line x1="4" y1="12" x2="20" y2="12" />
		<line x1="12" y1="4" x2="12" y2="20" />
	</symbol>

	<!-- 引用 -->
	<symbol id="quote" viewBox="0 0 24 24">
		<path stroke="none" d="M0 0h24v24H0z" fill="none"/>
		<path d="M6 15h15" />
		<path d="M21 19h-15" />
		<path d="M15 11h6" />
		<path d="M21 7h-6" />
		<path d="M9 9h1a1 1 0 1 1 -1 1v-2.5a2 2 0 0 1 2 -2" />
		<path d="M3 9h1a1 1 0 1 1 -1 1v-2.5a2 2 0 0 1 2 -2" />
	</symbol>

	<!-- 左寄せ -->
	<symbol id="align-l" viewBox="0 0 24 24">
		<path stroke="none" d="M0 0h24v24H0z" fill="none"/>
		<line x1="4" y1="6" x2="20" y2="6" />
		<line x1="4" y1="12" x2="14" y2="12" />
		<line x1="4" y1="18" x2="18" y2="18" />
	</symbol>

	<!-- 中央揃え -->
	<symbol id="align-c" viewBox="0 0 24 24">
		<path stroke="none" d="M0 0h24v24H0z" fill="none"/>
		<line x1="4" y1="6" x2="20" y2="6" />
		<line x1="8" y1="12" x2="16" y2="12" />
		<line x1="6" y1="18" x2="18" y2="18" />
	</symbol>

	<!-- 右寄せ -->
	<symbol id="align-r" viewBox="0 0 24 24">
		<path stroke="none" d="M0 0h24v24H0z" fill="none"/>
		<line x1="4" y1="6" x2="20" y2="6" />
		<line x1="10" y1="12" x2="20" y2="12" />
		<line x1="6" y1="18" x2="20" y2="18" />
	</symbol>

	<!-- インデント右 -->
	<symbol id="padding-p" viewBox="0 0 24 24">
		<path stroke="none" d="M0 0h24v24H0z" fill="none"/>
		<line x1="20" y1="6" x2="9" y2="6" />
		<line x1="20" y1="12" x2="13" y2="12" />
		<line x1="20" y1="18" x2="9" y2="18" />
		<path d="M4 8l4 4l-4 4" />
	</symbol>

	<!-- インデント左 -->
	<symbol id="padding-m" viewBox="0 0 24 24">
		<path stroke="none" d="M0 0h24v24H0z" fill="none"/>
		<line x1="20" y1="6" x2="13" y2="6" />
		<line x1="20" y1="12" x2="11" y2="12" />
		<line x1="20" y1="18" x2="13" y2="18" />
		<path d="M8 8l-4 4l4 4" />
	</symbol>

	<!-- 太字 -->
	<symbol id="bold" viewBox="0 0 24 24">
		<path stroke="none" d="M0 0h24v24H0z" fill="none"/>
		<path d="M7 5h6a3.5 3.5 0 0 1 0 7h-6z" />
		<path d="M13 12h1a3.5 3.5 0 0 1 0 7h-7v-7" />
	</symbol>

	<!-- 斜め文字 -->
	<symbol id="italic" viewBox="0 0 24 24">
		<path stroke="none" d="M0 0h24v24H0z" fill="none"/>
		<line x1="11" y1="5" x2="17" y2="5" />
		<line x1="7" y1="19" x2="13" y2="19" />
		<line x1="14" y1="5" x2="10" y2="19" />
	</symbol>

	<!-- 取消線 -->
	<symbol id="strike" viewBox="0 0 24 24">
		<path stroke="none" d="M0 0h24v24H0z" fill="none"/>
		<line x1="5" y1="12" x2="19" y2="12" />
		<path d="M16 6.5a4 2 0 0 0 -4 -1.5h-1a3.5 3.5 0 0 0 0 7h2a3.5 3.5 0 0 1 0 7h-1.5a4 2 0 0 1 -4 -1.5" />
	</symbol>

	<!-- 下線 -->
	<symbol id="underline" viewBox="0 0 24 24">
		<path stroke="none" d="M0 0h24v24H0z" fill="none"/>
		<path d="M7 5v5a5 5 0 0 0 10 0v-5" />
		<path d="M5 19h14" />
	</symbol>

	<!-- 見出し -->
	<symbol id="headers" viewBox="0 0 24 24">
		<path stroke="none" d="M0 0h24v24H0z" fill="none"/>
		<path d="M7 12h10" />
		<path d="M7 4v16" />
		<path d="M17 4v16" />
		<path d="M15 20h4" />
		<path d="M15 4h4" />
		<path d="M5 20h4" />
		<path d="M5 4h4" />
	</symbol>

	<!-- フォントサイズ -->
	<symbol id="fontsize" viewBox="0 0 24 24">
		<path stroke="none" d="M0 0h24v24H0z" fill="none"/>
		<circle cx="5" cy="5" r="2" />
		<circle cx="19" cy="5" r="2" />
		<circle cx="5" cy="19" r="2" />
		<circle cx="19" cy="19" r="2" />
		<path d="M5 7v10" />
		<path d="M7 5h10" />
		<path d="M7 19h10" />
		<path d="M19 7v10" />
		<path d="M10 10h4" />
		<path d="M12 14v-4" />
	</symbol>

	<!-- リセット -->
	<symbol id="reset" viewBox="0 0 24 24">
		<path stroke="none" d="M0 0h24v24H0z" fill="none"/>
		<line x1="4" y1="7" x2="20" y2="7" />
		<line x1="10" y1="11" x2="10" y2="17" />
		<line x1="14" y1="11" x2="14" y2="17" />
		<path d="M5 7l1 12a2 2 0 0 0 2 2h8a2 2 0 0 0 2 -2l1 -12" />
		<path d="M9 7v-3a1 1 0 0 1 1 -1h4a1 1 0 0 1 1 1v3" />
	</symbol>
</svg>